<?xml version="1.0" encoding="utf-8"?>
<!-- Generator: Adobe Illustrator 23.0.1, SVG Export Plug-In . SVG Version: 6.00 Build 0)  -->
<svg version="1.1" id="Layer_1" xmlns="http://www.w3.org/2000/svg" xmlns:xlink="http://www.w3.org/1999/xlink" x="0px" y="0px"
	 viewBox="0 0 160 84" style="enable-background:new 0 0 160 84;" xml:space="preserve">
<style type="text/css">
	.st0{fill:#4285F4;}
	.st1{fill:#FFFFFF;}
</style>
<g id="BF">
	<rect class="st0" width="160" height="84"/>
</g>
<g>
	<path class="st1" d="M-93.6-65.6c-0.2,2.1-0.3,3.7-0.3,5c0,0.5-0.1,0.9-0.4,1.3c-0.3,0.4-0.7,0.6-1.2,0.6c-1.1,0-1.6-0.6-1.6-1.9
		c0-0.7,0.3-3.1,0.8-7.1c0.4-3.3,0.6-5.2,0.6-5.9c0-0.7,0-1.1-0.1-1.2c-0.6-0.3-0.9-0.8-0.9-1.6c0-0.7,1.2-1.4,3.6-2
		c2.4-0.6,4.5-0.8,6.2-0.8c2,0,3.6,0.4,4.8,1.2c1.2,0.8,1.8,1.9,1.8,3.4c0,2-1.1,3.8-3.3,5.3c-2.2,1.5-4.8,2.6-8,3.3
		C-92.8-65.8-93.5-65.7-93.6-65.6z M-92.4-75.7l-0.8,7c2.6-0.4,4.8-1.2,6.8-2.3c1.9-1.1,2.9-2.3,2.9-3.5c0-1.5-1.2-2.2-3.5-2.2
		C-88.7-76.6-90.5-76.3-92.4-75.7z"/>
	<path class="st1" d="M-74.4-82.2c1,0,1.4,0.5,1.4,1.6c0,0.5-0.1,1-0.2,1.6c-0.1,0.6-0.5,1.9-1.1,4.1c-0.4,1.6-0.8,3.3-1,5.2
		c-0.2,1.9-0.3,3.4-0.3,4.4c0,1.1,0.1,2.5,0.3,4c0,0.4,0.1,0.7,0.1,0.8c0,0.5-0.2,1-0.6,1.4c-0.4,0.4-0.8,0.6-1.3,0.6
		c-0.6,0-1.1-0.3-1.3-0.9c-0.2-0.6-0.4-1.6-0.4-3.1c0-3.1,0.4-6.8,1.1-11c0.7-4.2,1.3-6.7,1.8-7.5C-75.4-81.8-74.9-82.2-74.4-82.2z"
		/>
	<path class="st1" d="M-62.3-64.1c-2.3,3.1-4.6,4.6-6.8,4.6c-0.8,0-1.5-0.3-2.1-0.9c-0.6-0.6-0.9-1.4-0.9-2.4c0-2.4,1.1-4.9,3.2-7.5
		c2.1-2.7,4.2-4,6.4-4c1.1,0,1.8,0.5,2.1,1.6c1,0,1.5,0.4,1.5,1.2c0,0.4-0.1,1.1-0.3,2c-0.4,1.8-0.5,3.3-0.5,4.4s0.1,1.9,0.2,2.4
		c0.2,0.5,0.3,0.8,0.3,0.9c0,0.1,0.3,0.3,0.6,0.5c0.4,0.2,0.5,0.4,0.5,0.7c0,0.5-0.2,0.8-0.7,1.1s-0.9,0.5-1.4,0.5
		C-61.8-59-62.5-60.7-62.3-64.1z M-63.1-71.5c-0.9,0-2.1,1-3.5,3s-2.2,3.7-2.2,5.1c0,0.7,0.2,1.1,0.5,1.1c1.1,0,2.3-0.9,3.9-2.8
		c1.5-1.9,2.3-3.5,2.3-4.9c0-0.4-0.1-0.8-0.3-1.1C-62.7-71.3-62.9-71.5-63.1-71.5z"/>
	<path class="st1" d="M-51.5-58.9c-1.5,0-2.6-0.4-3.4-1.2S-56-62-56-63.4c0-2.2,0.9-4.7,2.7-7.3s3.6-3.9,5.4-3.9
		c0.8,0,1.6,0.4,2.2,1.3c0.6,0.8,0.9,1.7,0.9,2.6s-0.2,1.4-0.5,1.7c-0.3,0.3-0.6,0.4-0.9,0.4c-0.9,0-1.4-0.6-1.5-1.8
		c-0.1-0.9-0.3-1.3-0.7-1.3c-0.7,0-1.6,1-2.7,3c-1.1,2-1.7,3.7-1.7,5.2c0,1.2,0.6,1.8,1.9,1.8c1.4,0,2.9-0.5,4.3-1.5
		c0.7-0.5,1.2-0.7,1.6-0.7c0.5,0,0.7,0.2,0.7,0.7c0,0.7-0.8,1.6-2.4,2.7C-48.2-59.4-49.8-58.9-51.5-58.9z"/>
	<path class="st1" d="M-29.7-64.2c0,0.9-0.8,2-2.3,3.3c-1.6,1.3-3.3,1.9-5.3,1.9c-1.5,0-2.7-0.5-3.6-1.4s-1.3-2.3-1.3-4
		c0-2.5,0.9-4.8,2.6-7c1.8-2.2,3.6-3.3,5.6-3.3c1,0,1.8,0.3,2.4,0.9s0.9,1.4,0.9,2.3c0,1.5-0.7,3-2.2,4.4s-3.4,2.4-5.7,2.9
		c-0.3,0.1-0.4,0.2-0.4,0.5c0,0.4,0.2,0.8,0.6,1.2c0.4,0.4,0.9,0.6,1.5,0.6c1.8,0,3.6-0.9,5.3-2.8c0.3-0.4,0.7-0.5,1-0.5
		C-30-65.1-29.7-64.8-29.7-64.2z M-38.7-66.5c1.4-0.3,2.6-0.9,3.7-1.8s1.6-1.7,1.6-2.5c0-0.3-0.1-0.5-0.2-0.7
		c-0.2-0.2-0.4-0.3-0.6-0.3c-0.8,0-1.6,0.6-2.6,1.7S-38.4-67.8-38.7-66.5z"/>
	<path class="st1" d="M-6.4-68.4L-6.4-68.4C-6.7-67.7-7-65.2-7.3-61c-0.1,0.9-0.2,1.5-0.3,1.6C-7.7-59.2-8-59.1-8.4-59
		c-0.4,0.1-0.7,0.2-0.9,0.2c-1,0-1.5-0.7-1.5-2c0-0.6,0.1-1.7,0.4-3.4c0.3-1.6,0.4-2.8,0.4-3.5c0-0.4-0.1-0.7-0.2-1.1
		c-0.7-0.8-1.6-1.9-2.7-3.3c-1.2-1.6-2.1-2.7-2.6-3c-1.1-0.8-1.7-1.3-2-1.7s-0.4-0.8-0.4-1.1c0-0.2,0.2-0.5,0.6-0.8
		c0.4-0.3,0.7-0.5,1.1-0.5c1.3,0,3.4,1.9,6.3,5.7c0.9,1.3,1.6,2.1,1.9,2.4c0.3-0.4,0.7-0.8,1-1.2s0.7-0.8,1.1-1.2
		c2.2-2.2,3.6-3.8,4.3-4.9c0.7-1,1.5-1.5,2.4-1.5c0.4,0,0.7,0.2,1,0.5c0.3,0.3,0.4,0.7,0.4,1c0,0.5-1.6,2.5-4.9,5.8
		C-5.1-70.2-6.3-68.8-6.4-68.4z"/>
	<path class="st1" d="M12.7-66.4c-0.6,2.1-1.7,3.8-3.4,5.3C7.6-59.7,6-59,4.3-59C3-59,1.9-59.5,1-60.4c-0.9-1-1.3-2.1-1.3-3.6
		c0-2.3,0.8-4.6,2.3-6.8c1.6-2.2,3.5-3.3,5.7-3.3c1.5,0,2.8,0.6,3.7,1.7c0.9,1.1,1.4,2.5,1.4,4C12.9-67.7,12.9-67,12.7-66.4
		L12.7-66.4z M5.8-70.6C5.2-70,4.6-69.2,4-68c-0.6,1.2-0.9,2.4-0.9,3.6c0,0.7,0.1,1.3,0.4,1.8s0.6,0.7,1.1,0.7c1.1,0,2.2-0.7,3.4-2
		c1.2-1.3,1.8-2.8,1.8-4.4c0-0.9-0.2-1.7-0.6-2.3s-0.9-0.9-1.6-0.9C6.9-71.3,6.3-71,5.8-70.6L5.8-70.6z"/>
	<path class="st1" d="M24.9-64.5c-0.9,1.6-1.8,2.8-3,3.7c-1.1,0.9-2.3,1.4-3.4,1.4c-0.7,0-1.4-0.4-2.1-1.1c-0.7-0.7-1-1.8-1-3.3
		c0-1.1,0.3-2.7,0.8-4.8c0.5-1.8,0.7-3.1,0.7-4c0.4-0.7,0.9-1.1,1.7-1.1c0.5,0,0.9,0.2,1.2,0.5c0.3,0.3,0.5,0.7,0.5,1
		c0,0.6-0.2,1.5-0.7,2.7c-0.3,0.7-0.5,1.7-0.8,2.9c-0.3,1.3-0.4,2.1-0.4,2.4c0,1.2,0.2,1.8,0.7,1.8c0.8,0,1.8-0.7,3.1-2.2
		c1.3-1.5,2.2-3,2.6-4.6c0.4-1.5,0.8-2.5,1.1-3s0.8-0.7,1.3-0.7c0.9,0,1.4,0.5,1.4,1.5c0,0.2-0.1,0.5-0.2,0.9
		c-0.5,1.6-0.8,3.4-0.8,5.3c0,2.3,0.4,3.7,1.2,4.2c0.3,0.2,0.4,0.3,0.4,0.6s-0.2,0.6-0.7,0.9c-0.5,0.3-0.9,0.4-1.3,0.4
		c-0.7,0-1.2-0.5-1.6-1.5C25.1-61.5,24.9-62.8,24.9-64.5z"/>
	<path class="st1" d="M35.4-66.2l0.2-0.4c1.1-2.2,2.2-3.9,3.5-5.3c1.2-1.3,2.5-2,3.6-2c0.9,0,1.6,0.2,2.2,0.7
		c0.6,0.5,0.9,1.1,0.9,1.8c0,0.4-0.1,0.8-0.3,1.1c-0.2,0.3-0.5,0.5-0.8,0.5c-0.6,0-1.1-0.2-1.5-0.7c-0.3-0.3-0.6-0.4-0.8-0.4
		c-0.7,0-1.8,1-3.3,3.1c-1.6,2.1-2.5,4.4-2.8,7c-0.1,0.7-0.3,1.3-0.7,1.6c-0.3,0.3-0.8,0.4-1.4,0.4c-0.6,0-1.1-0.3-1.3-1
		c-0.3-0.7-0.4-1.8-0.4-3.4c0-0.6,0-1.5,0.1-2.6c0-1,0.1-2.3,0.3-3.8c0-0.4,0.1-0.7,0.1-0.9c0.1-0.9,0.2-1.5,0.3-1.8
		c0.1-0.3,0.3-0.6,0.7-0.9c0.4-0.3,0.8-0.4,1.2-0.4c0.5,0,0.8,0.1,1.1,0.4c0.2,0.3,0.4,0.6,0.4,0.9c0,0.4-0.2,1.3-0.6,2.6
		c-0.1,0.5-0.3,1-0.4,1.6L35.4-66.2z"/>
	<path class="st1" d="M-85-27.4c-0.2,0-0.6,0-1.1-0.1c-0.5,0-0.9-0.1-1.2-0.1c-2.4,0-4.8,0.4-7.1,1.1c-0.9,0.3-1.6,0.5-2,0.5
		c-0.5,0-1-0.2-1.3-0.6s-0.5-0.8-0.5-1.2c0-0.2,0.1-0.6,0.2-1.2c0.2-0.8,0.4-1.8,0.5-2.8l1.2-11.1c0.1-1.1,0.2-1.7,0.3-2
		c0.1-0.3,0.3-0.6,0.6-0.8c0.3-0.2,0.7-0.4,1.3-0.4c0.4,0,0.8,0.2,1.1,0.5c0.3,0.3,0.5,0.7,0.5,1s-0.1,0.9-0.2,1.8
		c-0.2,1.2-0.6,3.6-1,7.2c-0.4,3.5-0.6,5.4-0.6,5.6c0,0.3,0,0.4,0.1,0.4c0.3,0,1.3-0.1,2.8-0.4c0.7-0.1,1.4-0.2,2.2-0.2
		c2.1-0.1,3.5-0.2,4.4-0.5c0.3-0.1,0.5-0.1,0.6-0.1c0.5,0,0.9,0.1,1.1,0.4c0.3,0.3,0.4,0.6,0.4,1c0,0.6-0.2,1.1-0.7,1.4
		C-83.8-27.6-84.4-27.4-85-27.4z"/>
	<path class="st1" d="M-67.9-33.6c-0.6,2.1-1.7,3.8-3.4,5.3c-1.7,1.4-3.3,2.1-5,2.1c-1.3,0-2.4-0.5-3.3-1.4c-0.9-1-1.3-2.1-1.3-3.6
		c0-2.3,0.8-4.6,2.3-6.8c1.6-2.2,3.5-3.3,5.7-3.3c1.5,0,2.8,0.6,3.7,1.7c0.9,1.1,1.4,2.5,1.4,4C-67.7-34.9-67.8-34.2-67.9-33.6
		L-67.9-33.6z M-74.9-37.8c-0.6,0.6-1.2,1.4-1.8,2.6c-0.6,1.2-0.9,2.4-0.9,3.6c0,0.7,0.1,1.3,0.4,1.8c0.3,0.5,0.6,0.7,1.1,0.7
		c1.1,0,2.3-0.7,3.4-2c1.2-1.3,1.8-2.8,1.8-4.4c0-0.9-0.2-1.7-0.6-2.3s-0.9-0.9-1.6-0.9C-73.8-38.5-74.3-38.2-74.9-37.8L-74.9-37.8z
		"/>
	<path class="st1" d="M-56-30.9c-1,1.1-2.1,2-3.5,2.7c-1.3,0.7-2.4,1.1-3.4,1.1c-0.9,0-1.7-0.3-2.2-0.8c-0.5-0.6-0.8-1.3-0.8-2.3
		c0-1.4,0.5-2.9,1.6-4.6c1-1.7,2.5-3.2,4.4-4.4s3.5-1.9,5-1.9c0.8,0,1.5,0.2,2.1,0.7c0.1,0.1,0.3,0.2,0.4,0.3
		c0.2,0.2,0.4,0.4,0.6,0.8c0.2,0.4,0.3,0.7,0.3,1c0,0.2-0.2,0.7-0.5,1.6c-0.3,1-0.6,1.9-0.7,2.8c-0.1,0.9-0.4,3.1-0.8,6.7
		c-0.4,3.1-1.2,5.4-2.6,6.8c-1.4,1.4-2.9,2.1-4.6,2.1c-1.8,0-3.5-0.6-5.1-1.8c-1.6-1.2-2.5-2.2-2.5-2.9c0-0.7,0.3-1,1-1
		c0.3,0,0.8,0.3,1.6,0.8c2,1.3,3.8,2,5.2,2c1.1,0,2-0.7,2.8-2.1C-57-24.7-56.4-27.2-56-30.9z M-55.7-38.3c-0.7,0-1.5,0.4-2.6,1.2
		s-2.1,1.8-3,3.2c-0.9,1.3-1.4,2.4-1.4,3.3c0,0.5,0.2,0.7,0.5,0.7c1.1,0,2.3-0.5,3.4-1.4c1.1-0.9,2-2,2.7-3.2s1-2.1,1-2.8
		c0-0.3-0.1-0.6-0.2-0.7C-55.3-38.2-55.5-38.3-55.7-38.3z"/>
	<path class="st1" d="M-36.9-33.6c-0.6,2.1-1.7,3.8-3.4,5.3c-1.7,1.4-3.3,2.1-5,2.1c-1.3,0-2.4-0.5-3.3-1.4c-0.9-1-1.3-2.1-1.3-3.6
		c0-2.3,0.8-4.6,2.3-6.8c1.6-2.2,3.5-3.3,5.7-3.3c1.5,0,2.8,0.6,3.7,1.7c0.9,1.1,1.4,2.5,1.4,4C-36.7-34.9-36.7-34.2-36.9-33.6
		L-36.9-33.6z M-43.8-37.8c-0.6,0.6-1.2,1.4-1.8,2.6c-0.6,1.2-0.9,2.4-0.9,3.6c0,0.7,0.1,1.3,0.4,1.8c0.3,0.5,0.6,0.7,1.1,0.7
		c1.1,0,2.3-0.7,3.4-2c1.1-1.3,1.8-2.8,1.8-4.4c0-0.9-0.2-1.7-0.6-2.3s-0.9-0.9-1.6-0.9C-42.7-38.5-43.3-38.2-43.8-37.8L-43.8-37.8z
		"/>
	<path class="st1" d="M-18.6-34.3c-0.2,0.5-0.4,1.8-0.5,4c0,1.3-0.2,2.3-0.5,3.2c-0.3,0.9-0.7,1.3-1.2,1.3c-0.6,0-1-0.2-1.4-0.5
		c-0.4-0.4-0.6-0.9-0.6-1.5s0.1-1.4,0.4-2.4c0.6-2.3,1.2-7.2,1.9-14.6c0-0.3,0.2-0.6,0.5-0.9c0.3-0.3,0.6-0.4,1-0.4
		c1.2,0,1.8,0.7,1.8,2.2c0,0.7-0.1,1.7-0.4,3.1c-0.3,1.6-0.5,2.8-0.5,3.6c0.1,0.1,0.4,0.1,1,0.1c1.2,0,3-0.1,5.3-0.3
		s3.5-0.4,3.7-0.8c0.2-0.3,0.4-1.2,0.5-2.7c0.2-1.5,0.3-3.1,0.3-4.8c0-0.2,0.2-0.5,0.6-0.9s0.8-0.5,1.2-0.5c0.5,0,0.9,0.2,1.2,0.5
		c0.3,0.3,0.5,0.7,0.5,1.2c0,0.7-0.2,1.9-0.5,3.6c-0.4,2-0.7,4.5-0.9,7.6c-0.3,3.1-0.4,5.1-0.4,6.1c0,0.5-0.2,1-0.7,1.4
		C-6.8-26.2-7.2-26-7.5-26c-0.4,0-0.8-0.1-1.1-0.4c-0.4-0.3-0.5-0.7-0.5-1.1c0-0.3,0.1-1.3,0.4-3.1c0.2-1.8,0.4-3,0.4-3.6
		c0-0.4-0.1-0.6-0.3-0.6c-0.4,0-1.2,0-2.5,0.1c-1.2,0.1-2.1,0.2-2.5,0.2c-0.3,0-1.2,0-2.6,0.1C-17.7-34.4-18.5-34.4-18.6-34.3z"/>
	<path class="st1" d="M10.7-31.4c0,0.9-0.8,2-2.3,3.3c-1.6,1.3-3.3,1.9-5.3,1.9c-1.5,0-2.7-0.5-3.6-1.4s-1.3-2.3-1.3-4
		c0-2.5,0.9-4.8,2.6-7c1.8-2.2,3.6-3.3,5.6-3.3c1,0,1.8,0.3,2.4,0.9c0.6,0.6,0.9,1.4,0.9,2.3c0,1.5-0.7,3-2.2,4.4s-3.4,2.4-5.7,2.9
		c-0.3,0.1-0.4,0.2-0.4,0.5c0,0.4,0.2,0.8,0.6,1.2c0.4,0.4,0.9,0.6,1.5,0.6c1.8,0,3.6-0.9,5.3-2.8c0.3-0.4,0.7-0.5,1-0.5
		C10.5-32.3,10.7-32,10.7-31.4z M1.8-33.7c1.4-0.3,2.6-0.9,3.7-1.8c1.1-0.9,1.6-1.7,1.6-2.5c0-0.3-0.1-0.5-0.2-0.7
		C6.7-38.9,6.5-39,6.3-39c-0.8,0-1.6,0.6-2.6,1.7C2.7-36.2,2.1-35,1.8-33.7z"/>
	<path class="st1" d="M16.3-33.4l0.2-0.4c1.1-2.2,2.2-3.9,3.5-5.3c1.2-1.3,2.5-2,3.6-2c0.9,0,1.6,0.2,2.2,0.7
		c0.6,0.5,0.9,1.1,0.9,1.8c0,0.4-0.1,0.8-0.3,1.1S25.9-37,25.6-37c-0.6,0-1.1-0.2-1.5-0.7c-0.3-0.3-0.6-0.4-0.8-0.4
		c-0.7,0-1.8,1-3.3,3.1s-2.5,4.4-2.8,7c-0.1,0.7-0.3,1.3-0.7,1.6c-0.3,0.3-0.8,0.4-1.4,0.4s-1.1-0.3-1.3-1c-0.3-0.7-0.4-1.8-0.4-3.4
		c0-0.6,0-1.5,0.1-2.6c0-1,0.1-2.3,0.3-3.8c0-0.4,0.1-0.7,0.1-0.9c0.1-0.9,0.2-1.5,0.3-1.8c0.1-0.3,0.3-0.6,0.7-0.9s0.8-0.4,1.2-0.4
		c0.5,0,0.8,0.1,1.1,0.4c0.2,0.3,0.4,0.6,0.4,0.9c0,0.4-0.2,1.3-0.6,2.6c-0.1,0.5-0.3,1-0.4,1.6L16.3-33.4z"/>
	<path class="st1" d="M38.9-31.4c0,0.9-0.8,2-2.3,3.3c-1.6,1.3-3.3,1.9-5.3,1.9c-1.5,0-2.7-0.5-3.6-1.4c-0.9-0.9-1.3-2.3-1.3-4
		c0-2.5,0.9-4.8,2.6-7c1.8-2.2,3.6-3.3,5.6-3.3c1,0,1.8,0.3,2.4,0.9c0.6,0.6,0.9,1.4,0.9,2.3c0,1.5-0.7,3-2.2,4.4s-3.4,2.4-5.7,2.9
		c-0.3,0.1-0.4,0.2-0.4,0.5c0,0.4,0.2,0.8,0.6,1.2c0.4,0.4,0.9,0.6,1.5,0.6c1.8,0,3.6-0.9,5.3-2.8c0.3-0.4,0.7-0.5,1-0.5
		C38.6-32.3,38.9-32,38.9-31.4z M30-33.7c1.4-0.3,2.6-0.9,3.7-1.8c1.1-0.9,1.6-1.7,1.6-2.5c0-0.3-0.1-0.5-0.2-0.7
		c-0.2-0.2-0.4-0.3-0.6-0.3c-0.8,0-1.6,0.6-2.6,1.7C30.9-36.2,30.3-35,30-33.7z"/>
</g>
<g>
	<path class="st1" d="M25.8,19.5c0,0.9-0.2,1.8-0.5,2.6c-0.3,0.8-0.8,1.4-1.4,1.9c-0.7,0.5-1.5,0.9-2.6,1.2c-1,0.3-2.3,0.4-3.8,0.4
		h-2.4v5.2c0,0.7,0,1.2,0.1,1.6c0.1,0.4,0.3,0.7,0.5,1c0.3,0.2,0.6,0.4,1.1,0.5c0.5,0.1,1.1,0.1,1.9,0.1v1H9.3v-1
		c0.6,0,1.1-0.1,1.5-0.2c0.4-0.1,0.7-0.2,0.9-0.5s0.4-0.5,0.4-0.9c0.1-0.4,0.1-0.9,0.1-1.5V18.4c0-0.6,0-1.1-0.1-1.5
		c-0.1-0.4-0.2-0.7-0.4-0.9c-0.2-0.2-0.5-0.4-0.8-0.5s-0.8-0.1-1.4-0.2v-1H18c2.5,0,4.4,0.5,5.7,1.4C25.1,16.6,25.8,17.9,25.8,19.5z
		 M15.1,24.3H17c1.8,0,3.1-0.3,4-1c0.9-0.7,1.3-1.8,1.3-3.4c0-1.5-0.3-2.6-1-3.3c-0.7-0.7-1.8-1-3.2-1h-2.5c-0.3,0-0.5,0.2-0.5,0.5
		V24.3z"/>
	<path class="st1" d="M32.2,30.8c0,0.7,0,1.2,0.1,1.6c0.1,0.4,0.2,0.7,0.3,1c0.2,0.2,0.4,0.4,0.7,0.5c0.3,0.1,0.7,0.1,1.2,0.2V35
		h-7.4v-0.9c0.5,0,1-0.1,1.3-0.2c0.3-0.1,0.6-0.3,0.8-0.5s0.3-0.5,0.4-0.9c0.1-0.4,0.1-0.9,0.1-1.5V19.4c0-1,0-1.8,0-2.4
		c0-0.7-0.1-1.1-0.1-1.3c-0.1-0.4-0.3-0.7-0.6-0.8c-0.3-0.1-0.9-0.2-1.8-0.2v-0.9l5.1-1V30.8z"/>
	<path class="st1" d="M44.6,25.9v-1.1c0-2.2-0.9-3.3-2.8-3.3c-0.3,0-0.6,0-0.8,0.1s-0.4,0.1-0.5,0.3c-0.1,0.1-0.3,0.3-0.4,0.5
		c-0.1,0.2-0.2,0.5-0.3,0.9c-0.2,0.5-0.4,0.9-0.6,1c-0.2,0.2-0.5,0.3-0.8,0.3c-0.9,0-1.3-0.4-1.3-1.3c0-0.9,0.5-1.5,1.4-2
		c0.9-0.5,2.2-0.7,3.9-0.7c1.8,0,3.1,0.3,3.8,1c0.8,0.6,1.1,1.7,1.1,3.2v6c0,2,0.4,3.1,1.2,3.1c0.3,0,0.5,0,0.7-0.1
		c0.2-0.1,0.4-0.2,0.6-0.5l0.4,0.6c-0.2,0.4-0.6,0.8-1.2,1c-0.6,0.3-1.2,0.4-1.8,0.4c-0.8,0-1.4-0.3-1.8-0.8
		c-0.4-0.5-0.6-1.2-0.6-2.1h-0.1c-0.5,0.9-1.1,1.6-1.9,2.1c-0.8,0.5-1.7,0.8-2.7,0.8c-1.1,0-2-0.3-2.7-0.9c-0.6-0.6-1-1.3-1-2.3
		c0-0.4,0.1-0.8,0.2-1.2c0.2-0.4,0.4-0.8,0.7-1.1c0.3-0.4,0.8-0.7,1.3-1.1s1.2-0.7,2-1.1L44.6,25.9z M44.6,27.1
		c-1,0.4-1.9,0.8-2.6,1.2s-1.3,0.8-1.7,1.1s-0.7,0.8-0.9,1.1s-0.3,0.8-0.3,1.2c0,0.6,0.2,1.1,0.6,1.4c0.4,0.4,0.9,0.6,1.6,0.6
		c0.5,0,0.9-0.1,1.3-0.3c0.4-0.2,0.8-0.6,1.1-1s0.5-0.9,0.7-1.4c0.2-0.5,0.3-1.1,0.3-1.7V27.1z"/>
	<path class="st1" d="M63.7,32.8c-0.6,0.8-1.5,1.4-2.5,1.8s-2.1,0.7-3.3,0.7c-0.9,0-1.8-0.2-2.6-0.5c-0.8-0.3-1.5-0.8-2.1-1.5
		c-0.6-0.6-1-1.4-1.3-2.3c-0.3-0.9-0.5-1.9-0.5-3c0-1.1,0.2-2.2,0.5-3.1c0.4-0.9,0.9-1.7,1.5-2.4c0.7-0.7,1.4-1.2,2.4-1.5
		s1.9-0.5,3-0.5c0.7,0,1.3,0.1,1.9,0.2c0.6,0.1,1.1,0.3,1.5,0.5c0.4,0.2,0.7,0.5,1,0.8c0.2,0.3,0.3,0.6,0.3,1c0,0.4-0.1,0.6-0.3,0.8
		c-0.2,0.2-0.6,0.3-1,0.3c-0.3,0-0.6-0.1-0.8-0.2c-0.2-0.1-0.5-0.4-0.8-0.9c-0.4-0.4-0.7-0.7-1-0.9c-0.3-0.2-0.8-0.3-1.3-0.3
		c-1.3,0-2.2,0.5-2.9,1.5c-0.7,1-1,2.4-1,4.4c0,2.1,0.4,3.6,1.1,4.7c0.7,1.1,1.8,1.6,3.2,1.6c0.8,0,1.5-0.1,2.1-0.4
		c0.7-0.3,1.3-0.8,2-1.4L63.7,32.8z"/>
	<path class="st1" d="M78.6,32.5c-1.5,1.8-3.4,2.8-5.7,2.8c-1.1,0-2-0.2-2.9-0.5c-0.9-0.3-1.6-0.8-2.2-1.5c-0.6-0.6-1.1-1.4-1.4-2.3
		c-0.3-0.9-0.5-1.9-0.5-2.9c0-1.1,0.2-2.1,0.5-3c0.4-0.9,0.9-1.7,1.5-2.4c0.7-0.7,1.4-1.2,2.3-1.6c0.9-0.4,1.9-0.6,3-0.6
		c1.7,0,3.1,0.5,4,1.4c0.9,0.9,1.4,2.3,1.4,4c0,0.3,0,0.4-0.1,0.5c-0.1,0.1-0.3,0.1-0.7,0.1H69c0,0.1-0.1,0.3-0.1,0.5
		c0,0.2,0,0.4,0,0.7c0,0.9,0.1,1.8,0.3,2.5c0.2,0.8,0.5,1.4,1,1.9c0.4,0.5,0.9,1,1.5,1.2c0.6,0.3,1.2,0.4,1.9,0.4
		c0.8,0,1.5-0.2,2.1-0.5c0.6-0.3,1.3-0.9,2-1.6L78.6,32.5z M74.1,25.3c0.4,0,0.6,0,0.9,0c0.2,0,0.4-0.1,0.5-0.1s0.2-0.1,0.2-0.2
		c0-0.1,0.1-0.2,0.1-0.4c0-0.8-0.3-1.5-0.8-2c-0.5-0.5-1.2-0.7-2.2-0.7c-1.9,0-3.1,1.2-3.6,3.5H74.1z"/>
	<path class="st1" d="M89.7,17.7c-0.3-0.5-0.5-0.8-0.8-1.1c-0.2-0.3-0.5-0.5-0.7-0.7c-0.2-0.2-0.5-0.3-0.8-0.4
		c-0.3-0.1-0.6-0.1-1-0.1v-1h8.5v1c-0.9,0-1.5,0.1-1.9,0.2c-0.4,0.1-0.6,0.4-0.6,0.7c0,0.4,0.2,0.9,0.6,1.6l4.2,7.1h0.1l3-5.1
		c0.6-1,1-1.7,1.2-2.3c0.2-0.6,0.4-1,0.4-1.3c0-0.3-0.1-0.6-0.4-0.7s-0.7-0.2-1.4-0.2v-1h6.1v1c-0.4,0-0.7,0.1-1,0.2
		c-0.3,0.1-0.6,0.3-0.9,0.6s-0.7,0.8-1.1,1.3c-0.4,0.6-0.9,1.3-1.4,2.3l-4.1,7v3.2c0,0.9,0,1.6,0.1,2.1c0.1,0.5,0.2,0.9,0.4,1.2
		c0.2,0.3,0.5,0.5,0.9,0.6c0.4,0.1,0.9,0.1,1.5,0.1v1h-8.7v-1c0.6,0,1.2,0,1.5-0.1c0.4-0.1,0.7-0.3,0.9-0.6c0.2-0.3,0.3-0.7,0.4-1.2
		s0.1-1.2,0.1-2v-3.3L89.7,17.7z"/>
	<path class="st1" d="M112.3,20.5c1,0,2,0.2,2.9,0.6c0.9,0.4,1.7,0.9,2.4,1.5c0.7,0.6,1.2,1.4,1.6,2.3c0.4,0.9,0.6,1.9,0.6,2.9
		c0,1.1-0.2,2.1-0.6,3c-0.4,0.9-0.9,1.7-1.6,2.4c-0.7,0.7-1.5,1.2-2.4,1.6c-0.9,0.4-1.9,0.6-2.9,0.6c-1,0-2-0.2-2.9-0.6
		s-1.7-0.9-2.4-1.5c-0.7-0.7-1.2-1.5-1.6-2.4c-0.4-0.9-0.6-1.9-0.6-3c0-1.1,0.2-2,0.6-2.9c0.4-0.9,0.9-1.7,1.6-2.3
		c0.7-0.6,1.5-1.1,2.4-1.5S111.3,20.5,112.3,20.5z M112.3,21.8c-0.7,0-1.3,0.1-1.8,0.4c-0.5,0.3-1,0.7-1.4,1.2
		c-0.4,0.5-0.7,1.2-0.9,1.9c-0.2,0.7-0.3,1.6-0.3,2.5c0,0.9,0.1,1.8,0.3,2.5s0.5,1.4,0.9,1.9c0.4,0.5,0.8,0.9,1.4,1.2
		c0.5,0.3,1.1,0.4,1.8,0.4c0.7,0,1.3-0.1,1.9-0.4c0.6-0.3,1-0.7,1.4-1.2c0.4-0.5,0.7-1.2,0.9-1.9s0.3-1.6,0.3-2.5
		c0-0.9-0.1-1.7-0.3-2.4c-0.2-0.7-0.5-1.4-0.9-1.9s-0.9-0.9-1.4-1.2S113,21.8,112.3,21.8z"/>
	<path class="st1" d="M133.6,25.1c0-0.7,0-1.3-0.1-1.7s-0.1-0.7-0.3-1c-0.2-0.2-0.4-0.4-0.7-0.5c-0.3-0.1-0.7-0.1-1.2-0.2v-0.9h4.9
		V29c0,1,0,1.9,0,2.5c0,0.6,0.1,1.1,0.1,1.4c0,0.2,0.1,0.4,0.2,0.6c0.1,0.1,0.2,0.2,0.4,0.3s0.4,0.1,0.6,0.2s0.6,0,1,0V35l-4.4,0.3
		l-0.3-3.2h-0.1c-0.7,1.1-1.5,1.9-2.3,2.4c-0.9,0.5-1.8,0.8-2.8,0.8c-0.8,0-1.5-0.1-2.2-0.4c-0.7-0.3-1.2-0.7-1.6-1.2
		c-0.3-0.4-0.5-0.9-0.7-1.6c-0.1-0.7-0.2-1.6-0.2-2.7v-4.3c0-0.7,0-1.3-0.1-1.7c0-0.4-0.1-0.7-0.3-1c-0.2-0.2-0.4-0.4-0.7-0.5
		c-0.3-0.1-0.7-0.1-1.2-0.2v-0.9h4.9v7.3c0,2,0.2,3.4,0.7,4.2c0.5,0.9,1.2,1.3,2.2,1.3c1.6,0,2.8-1,3.7-3.1c0.1-0.2,0.2-0.4,0.2-0.6
		c0.1-0.2,0.1-0.4,0.1-0.6s0.1-0.5,0.1-0.7c0-0.3,0-0.6,0-1V25.1z"/>
	<path class="st1" d="M145.1,30.7c0,0.7,0,1.3,0.1,1.7c0,0.4,0.1,0.8,0.3,1c0.2,0.2,0.4,0.4,0.7,0.4c0.3,0.1,0.7,0.1,1.2,0.2V35
		h-7.1v-0.9c0.5,0,0.9-0.1,1.2-0.1c0.3-0.1,0.5-0.2,0.7-0.4s0.3-0.5,0.3-0.9c0-0.4,0.1-0.9,0.1-1.6v-3.1c0-1.2,0-2.2,0-2.8
		c0-0.7-0.1-1.2-0.3-1.5c-0.2-0.3-0.4-0.5-0.7-0.6c-0.3-0.1-0.8-0.1-1.3-0.1v-0.9l4.7-1l0.4,3.3h0.1c0.2-0.5,0.5-1,0.9-1.5
		c0.3-0.4,0.7-0.8,1.1-1.1c0.4-0.3,0.8-0.6,1.3-0.7c0.4-0.2,0.9-0.3,1.4-0.3c0.6,0,1,0.1,1.4,0.4c0.3,0.3,0.5,0.6,0.5,1.1
		c0,0.4-0.1,0.8-0.4,1s-0.7,0.4-1.2,0.4c-0.3,0-0.5,0-0.7-0.1c-0.2-0.1-0.4-0.1-0.5-0.2s-0.3-0.2-0.4-0.2c-0.1-0.1-0.3-0.1-0.4-0.1
		c-0.5,0-1,0.3-1.5,0.9c-0.5,0.6-0.9,1.4-1.1,2.3c-0.1,0.5-0.3,1.1-0.3,1.8c-0.1,0.7-0.1,1.3-0.1,2.1V30.7z"/>
	<path class="st1" d="M26.7,67.2H9.3v-1c0.6,0,1.1-0.1,1.5-0.2c0.4-0.1,0.7-0.2,0.9-0.5s0.4-0.5,0.4-0.9c0.1-0.4,0.1-0.9,0.1-1.5
		V50.6c0-0.6,0-1.1-0.1-1.5c-0.1-0.4-0.2-0.7-0.4-0.9s-0.5-0.4-0.8-0.5c-0.4-0.1-0.8-0.1-1.4-0.2v-1h8.2v1c-0.6,0-1,0.1-1.4,0.2
		s-0.6,0.3-0.8,0.5s-0.3,0.6-0.4,1c-0.1,0.4-0.1,1-0.1,1.6v11.6c0,0.8,0.1,1.4,0.2,1.8c0.2,0.5,0.4,0.8,0.8,1.1
		c0.4,0.3,0.9,0.4,1.5,0.5c0.6,0.1,1.4,0.1,2.3,0.1c1,0,1.9-0.1,2.6-0.2c0.7-0.1,1.3-0.3,1.8-0.6c0.5-0.3,0.9-0.7,1.1-1.2
		c0.3-0.5,0.5-1.2,0.7-2.1h1L26.7,67.2z"/>
	<path class="st1" d="M36.3,52.7c1,0,2,0.2,2.9,0.6s1.7,0.9,2.4,1.5c0.7,0.6,1.2,1.4,1.6,2.3c0.4,0.9,0.6,1.9,0.6,2.9
		c0,1.1-0.2,2.1-0.6,3s-0.9,1.7-1.6,2.4c-0.7,0.7-1.5,1.2-2.4,1.6c-0.9,0.4-1.9,0.6-2.9,0.6c-1,0-2-0.2-2.9-0.6
		c-0.9-0.4-1.7-0.9-2.4-1.5c-0.7-0.7-1.2-1.5-1.6-2.4c-0.4-0.9-0.6-1.9-0.6-3c0-1.1,0.2-2,0.6-2.9c0.4-0.9,0.9-1.7,1.6-2.3
		s1.5-1.1,2.4-1.5C34.4,52.9,35.3,52.7,36.3,52.7z M36.3,54c-0.7,0-1.3,0.1-1.8,0.4c-0.5,0.3-1,0.7-1.4,1.2
		c-0.4,0.5-0.7,1.2-0.9,1.9c-0.2,0.7-0.3,1.6-0.3,2.5c0,0.9,0.1,1.8,0.3,2.5c0.2,0.8,0.5,1.4,0.9,1.9c0.4,0.5,0.8,0.9,1.4,1.2
		s1.1,0.4,1.8,0.4s1.3-0.1,1.9-0.4c0.6-0.3,1-0.7,1.4-1.2c0.4-0.5,0.7-1.2,0.9-1.9s0.3-1.6,0.3-2.5c0-0.9-0.1-1.7-0.3-2.4
		c-0.2-0.7-0.5-1.4-0.9-1.9c-0.4-0.5-0.9-0.9-1.4-1.2C37.6,54.2,37,54,36.3,54z"/>
	<path class="st1" d="M51.1,64.6c0.4,0,0.8,0.1,1.2,0.1c0.4,0,0.7,0.1,1.1,0.1c0.3,0,0.7,0.1,1,0.1s0.7,0.1,1.1,0.2
		c1.3,0.2,2.3,0.7,3.1,1.5c0.8,0.8,1.2,1.8,1.2,3c0,1.5-0.6,2.6-1.8,3.4c-1.2,0.8-2.9,1.2-5.2,1.2c-1,0-1.9-0.1-2.8-0.3
		c-0.8-0.2-1.5-0.4-2.1-0.8c-0.6-0.3-1.1-0.7-1.4-1.2c-0.3-0.5-0.5-1-0.5-1.5c0-0.4,0.1-0.7,0.2-1c0.1-0.3,0.3-0.6,0.5-0.8
		c0.2-0.2,0.5-0.4,0.8-0.6c0.3-0.1,0.6-0.2,0.9-0.2c0.6,0,1.2,0.2,1.6,0.6c-0.5,0.1-0.9,0.4-1.2,0.8c-0.3,0.4-0.5,0.9-0.5,1.4
		c0,0.8,0.4,1.4,1.2,1.8c0.8,0.4,1.9,0.6,3.3,0.6c3.1,0,4.6-0.9,4.6-2.8c0-0.7-0.2-1.3-0.7-1.8c-0.5-0.5-1.1-0.8-1.7-0.8
		c-0.4-0.1-0.9-0.1-1.3-0.2c-0.5-0.1-0.9-0.1-1.3-0.2c-0.4-0.1-0.8-0.1-1.2-0.1c-0.4,0-0.7-0.1-0.9-0.1c-1-0.1-1.8-0.4-2.3-0.8
		s-0.8-1-0.8-1.8c0-0.6,0.3-1.2,0.8-1.7s1.2-0.8,2-0.9v-0.1c-0.4-0.2-0.8-0.4-1.1-0.7c-0.3-0.3-0.6-0.6-0.9-1s-0.4-0.8-0.6-1.2
		c-0.1-0.4-0.2-0.9-0.2-1.4c0-0.7,0.1-1.3,0.4-1.9c0.3-0.6,0.6-1.1,1.1-1.5c0.5-0.4,1-0.8,1.7-1c0.6-0.2,1.4-0.4,2.1-0.4
		c0.8,0,1.5,0.1,2.2,0.4c0.7,0.2,1.3,0.6,1.8,1.1c0.6-0.5,1.1-0.9,1.6-1.1c0.5-0.2,0.9-0.3,1.3-0.3c0.6,0,1.2,0.1,1.5,0.4
		c0.4,0.3,0.6,0.7,0.6,1.2c0,0.3-0.1,0.5-0.3,0.7c-0.2,0.2-0.5,0.3-0.8,0.3c-0.3,0-0.5,0-0.6-0.1s-0.3-0.2-0.4-0.3s-0.3-0.2-0.4-0.3
		c-0.1-0.1-0.3-0.1-0.5-0.1c-0.4,0-0.9,0.2-1.3,0.5c0.4,0.7,0.6,1.5,0.6,2.5c0,1.5-0.5,2.7-1.4,3.6c-0.9,0.9-2.4,1.4-4.3,1.5
		c-1.1,0.1-1.9,0.2-2.3,0.3c-0.4,0.1-0.6,0.4-0.6,0.8c0,0.3,0.2,0.5,0.5,0.6S50.4,64.6,51.1,64.6z M52.5,61.5c0.8,0,1.3-0.3,1.8-1
		c0.4-0.7,0.6-1.6,0.6-2.9c0-1.2-0.2-2.2-0.6-2.8c-0.4-0.7-1-1-1.8-1c-0.8,0-1.4,0.3-1.8,1c-0.5,0.7-0.7,1.6-0.7,2.8
		s0.2,2.1,0.7,2.8C51.2,61.1,51.8,61.5,52.5,61.5z"/>
	<path class="st1" d="M69.9,52.7c1,0,2,0.2,2.9,0.6s1.7,0.9,2.4,1.5c0.7,0.6,1.2,1.4,1.6,2.3c0.4,0.9,0.6,1.9,0.6,2.9
		c0,1.1-0.2,2.1-0.6,3s-0.9,1.7-1.6,2.4c-0.7,0.7-1.5,1.2-2.4,1.6c-0.9,0.4-1.9,0.6-2.9,0.6c-1,0-2-0.2-2.9-0.6
		c-0.9-0.4-1.7-0.9-2.4-1.5c-0.7-0.7-1.2-1.5-1.6-2.4c-0.4-0.9-0.6-1.9-0.6-3c0-1.1,0.2-2,0.6-2.9c0.4-0.9,0.9-1.7,1.6-2.3
		s1.5-1.1,2.4-1.5C67.9,52.9,68.9,52.7,69.9,52.7z M69.9,54c-0.7,0-1.3,0.1-1.8,0.4c-0.5,0.3-1,0.7-1.4,1.2
		c-0.4,0.5-0.7,1.2-0.9,1.9c-0.2,0.7-0.3,1.6-0.3,2.5c0,0.9,0.1,1.8,0.3,2.5c0.2,0.8,0.5,1.4,0.9,1.9c0.4,0.5,0.8,0.9,1.4,1.2
		s1.1,0.4,1.8,0.4s1.3-0.1,1.9-0.4c0.6-0.3,1-0.7,1.4-1.2c0.4-0.5,0.7-1.2,0.9-1.9s0.3-1.6,0.3-2.5c0-0.9-0.1-1.7-0.3-2.4
		c-0.2-0.7-0.5-1.4-0.9-1.9c-0.4-0.5-0.9-0.9-1.4-1.2C71.2,54.2,70.5,54,69.9,54z"/>
	<path class="st1" d="M107.1,63c0,0.7,0,1.2,0.1,1.7s0.2,0.7,0.4,1s0.5,0.4,0.9,0.5c0.4,0.1,0.9,0.1,1.5,0.2v1h-8.7v-1
		c0.6,0,1.1-0.1,1.5-0.2c0.4-0.1,0.7-0.2,0.9-0.5s0.4-0.5,0.4-0.9c0.1-0.4,0.1-0.9,0.1-1.5v-5.8H93.4V63c0,0.7,0,1.2,0.1,1.7
		s0.2,0.7,0.4,1c0.2,0.2,0.5,0.4,0.9,0.5c0.4,0.1,0.9,0.1,1.5,0.2v1h-8.7v-1c0.6,0,1.1-0.1,1.5-0.2c0.4-0.1,0.7-0.2,0.9-0.5
		s0.4-0.5,0.4-0.9s0.1-0.9,0.1-1.5V50.6c0-0.6,0-1.1-0.1-1.5c-0.1-0.4-0.2-0.7-0.4-0.9c-0.2-0.2-0.5-0.4-0.8-0.5
		c-0.4-0.1-0.8-0.1-1.4-0.2v-1H96v1c-0.6,0-1,0.1-1.4,0.2c-0.3,0.1-0.6,0.3-0.8,0.5c-0.2,0.2-0.3,0.6-0.4,1c-0.1,0.4-0.1,1-0.1,1.6
		V56h10.9v-5.3c0-0.6,0-1.1-0.1-1.5c-0.1-0.4-0.2-0.7-0.4-0.9c-0.2-0.2-0.5-0.4-0.8-0.5c-0.4-0.1-0.8-0.1-1.4-0.2v-1h8.2v1
		c-0.6,0-1,0.1-1.4,0.2c-0.3,0.1-0.6,0.3-0.8,0.5c-0.2,0.2-0.3,0.6-0.4,1s-0.1,1-0.1,1.6V63z"/>
	<path class="st1" d="M124.6,64.7c-1.5,1.8-3.4,2.8-5.7,2.8c-1.1,0-2-0.2-2.9-0.5c-0.9-0.3-1.6-0.8-2.2-1.5
		c-0.6-0.6-1.1-1.4-1.4-2.3c-0.3-0.9-0.5-1.9-0.5-2.9c0-1.1,0.2-2.1,0.5-3s0.9-1.7,1.5-2.4s1.4-1.2,2.3-1.6s1.9-0.6,3-0.6
		c1.7,0,3.1,0.5,4,1.4s1.4,2.3,1.4,4c0,0.3,0,0.4-0.1,0.5c-0.1,0.1-0.3,0.1-0.7,0.1H115c0,0.1-0.1,0.3-0.1,0.5c0,0.2,0,0.4,0,0.7
		c0,0.9,0.1,1.8,0.3,2.5c0.2,0.8,0.5,1.4,1,1.9s0.9,1,1.5,1.2c0.6,0.3,1.2,0.4,1.9,0.4c0.8,0,1.5-0.2,2.1-0.5c0.6-0.3,1.3-0.9,2-1.6
		L124.6,64.7z M120.2,57.5c0.4,0,0.6,0,0.9,0s0.4-0.1,0.5-0.1s0.2-0.1,0.2-0.2c0-0.1,0.1-0.2,0.1-0.4c0-0.8-0.3-1.5-0.8-2
		c-0.5-0.5-1.2-0.7-2.2-0.7c-1.9,0-3.1,1.2-3.6,3.5H120.2z"/>
	<path class="st1" d="M131.9,63c0,0.7,0,1.3,0.1,1.7c0,0.4,0.1,0.8,0.3,1s0.4,0.4,0.7,0.4c0.3,0.1,0.7,0.1,1.2,0.2v0.9H127v-0.9
		c0.5,0,0.9-0.1,1.2-0.1c0.3-0.1,0.5-0.2,0.7-0.4s0.3-0.5,0.3-0.9c0-0.4,0.1-0.9,0.1-1.6V60c0-1.2,0-2.2,0-2.8
		c0-0.7-0.1-1.2-0.3-1.5c-0.2-0.3-0.4-0.5-0.7-0.6c-0.3-0.1-0.8-0.1-1.3-0.1V54l4.7-1l0.4,3.3h0.1c0.2-0.5,0.5-1,0.9-1.5
		c0.3-0.4,0.7-0.8,1.1-1.1c0.4-0.3,0.8-0.6,1.3-0.7c0.4-0.2,0.9-0.3,1.4-0.3c0.6,0,1,0.1,1.4,0.4s0.5,0.6,0.5,1.1
		c0,0.4-0.1,0.8-0.4,1c-0.3,0.2-0.7,0.4-1.2,0.4c-0.3,0-0.5,0-0.7-0.1c-0.2-0.1-0.4-0.1-0.5-0.2c-0.2-0.1-0.3-0.2-0.4-0.2
		c-0.1-0.1-0.3-0.1-0.4-0.1c-0.5,0-1,0.3-1.5,0.9c-0.5,0.6-0.9,1.4-1.1,2.3c-0.1,0.5-0.3,1.1-0.3,1.8c-0.1,0.7-0.1,1.3-0.1,2.1V63z"
		/>
	<path class="st1" d="M152.5,64.7c-1.5,1.8-3.4,2.8-5.7,2.8c-1.1,0-2-0.2-2.9-0.5c-0.9-0.3-1.6-0.8-2.2-1.5
		c-0.6-0.6-1.1-1.4-1.4-2.3c-0.3-0.9-0.5-1.9-0.5-2.9c0-1.1,0.2-2.1,0.5-3s0.9-1.7,1.5-2.4s1.4-1.2,2.3-1.6s1.9-0.6,3-0.6
		c1.7,0,3.1,0.5,4,1.4s1.4,2.3,1.4,4c0,0.3,0,0.4-0.1,0.5c-0.1,0.1-0.3,0.1-0.7,0.1h-8.8c0,0.1-0.1,0.3-0.1,0.5c0,0.2,0,0.4,0,0.7
		c0,0.9,0.1,1.8,0.3,2.5c0.2,0.8,0.5,1.4,1,1.9s0.9,1,1.5,1.2c0.6,0.3,1.2,0.4,1.9,0.4c0.8,0,1.5-0.2,2.1-0.5c0.6-0.3,1.3-0.9,2-1.6
		L152.5,64.7z M148.1,57.5c0.4,0,0.6,0,0.9,0s0.4-0.1,0.5-0.1s0.2-0.1,0.2-0.2c0-0.1,0.1-0.2,0.1-0.4c0-0.8-0.3-1.5-0.8-2
		c-0.5-0.5-1.2-0.7-2.2-0.7c-1.9,0-3.1,1.2-3.6,3.5H148.1z"/>
</g>
</svg>
